# xmcd
#
# Track frame offsets: 
#        150
#        4945
#        16975
#        19552
#        24190
#        43405
#        45157
#        59367
#        79840
#        95990
#        98497
#        114327
#        131510
#        154737
#        175105
#        192750
#
# Disc length: 2685 seconds
#
# Revision: 0
# Processed by: cddbd v1.5.2PL0 Copyright (c) Steve Scherf et al.
# Submitted via: ExactAudioCopy v0.99pb5
#
DISCID=ba0a7b10
DTITLE=Various Artist - Tape Proprietors
DYEAR=1999
DGENRE=Hip-Hop
TTITLE0=The X-Ecutioners and Big Punisher - The Drama (Intro)
TTITLE1=Raekwon - Live From N.Y.
TTITLE2=Raekwon - Skit
TTITLE3=Raekwon - Power
TTITLE4=I.G.T. and Inspectah Deck - Make Cents
TTITLE5=I.G.T - Skit
TTITLE6=Tash - Fallin' On
TTITLE7=Tear Da Club Up Thugs - Hypnotize Cash Money
TTITLE8=The Beatnuts and Method Man - Se Acabo (It's Over) (Remix)
TTITLE9=M.O.P. - Skit
TTITLE10=M.O.P. - G. Building
TTITLE11=Inspectah Deck - Forget Me Nots
TTITLE12=Dead Prez - Pistol
TTITLE13=Project Pat - Ballers (Cash Money Mix) ft. DJ Cash Money
TTITLE14=Mobb Deep - Spread Love
TTITLE15=The Shakedown (Outro)
EXTD=
EXTT0=
EXTT1=
EXTT2=
EXTT3=
EXTT4=
EXTT5=
EXTT6=
EXTT7=
EXTT8=
EXTT9=
EXTT10=
EXTT11=
EXTT12=
EXTT13=
EXTT14=
EXTT15=
PLAYORDER=
